<svg data-v-fde0c5aa="" xmlns="http://www.w3.org/2000/svg" viewBox="0 0 300 300" class="iconLeft"><!----><defs data-v-fde0c5aa=""><!----></defs><rect data-v-fde0c5aa="" fill="transparent" x="0" y="0" width="300px" height="300px" class="logo-background-square"></rect><defs data-v-fde0c5aa=""><!----></defs><g data-v-fde0c5aa="" id="c0c1a5ed-2b56-4df1-9925-417fb68fcfdd" fill="#000000" transform="matrix(2.8385469650748907,0,0,2.8385469650748907,105.38434131706055,122.1822412311432)"><path d="M2.95 8.58L3.70 4.72L5.91 4.72C6.48 4.72 6.92 4.90 7.20 5.25C7.48 5.60 7.56 6.06 7.45 6.62C7.34 7.18 7.06 7.64 6.62 8.02C6.19 8.39 5.71 8.58 5.17 8.58ZM8.41 6.65C8.58 5.81 8.43 5.12 7.94 4.58C7.46 4.05 6.79 3.78 5.95 3.78L2.90 3.78L1.05 13.30L2.03 13.30L2.76 9.53L4.83 9.53C5.68 9.53 6.44 9.25 7.13 8.72C7.83 8.18 8.25 7.49 8.41 6.65ZM9.44 13.30L9.94 10.72C10.11 9.87 10.37 9.21 10.75 8.76C10.96 8.51 11.21 8.33 11.51 8.19C11.80 8.05 12.15 7.99 12.57 7.99C12.99 7.99 13.26 8.13 13.38 8.41C13.51 8.69 13.54 9.04 13.45 9.45L12.71 13.30L13.69 13.30L14.43 9.45C14.57 8.74 14.50 8.15 14.21 7.71C14.07 7.49 13.89 7.32 13.64 7.20C13.38 7.07 13.03 7.01 12.60 7.01C12.17 7.01 11.76 7.13 11.38 7.35C11.02 7.56 10.70 7.85 10.43 8.20L11.48 2.80L10.50 2.80L8.46 13.30ZM15.68 16.80L21.83 7.14L20.73 7.14L18.16 11.27L17.00 7.14L15.88 7.14L17.44 12.29L14.49 16.80ZM22.60 12.42C22.39 12.25 22.26 11.98 22.23 11.58L21.20 11.58C21.17 12.85 21.85 13.48 23.28 13.48C23.62 13.48 23.93 13.45 24.23 13.37C24.54 13.29 24.84 13.16 25.10 13.01C25.63 12.68 25.97 12.19 26.10 11.54C26.22 10.88 26.00 10.40 25.42 10.09C25.17 9.97 24.91 9.86 24.61 9.79C24.32 9.72 24.02 9.65 23.77 9.56C23.52 9.48 23.31 9.37 23.16 9.24C23.00 9.11 22.95 8.90 23.00 8.62C23.06 8.34 23.20 8.15 23.45 8.01C23.69 7.88 23.97 7.81 24.28 7.81C24.58 7.81 24.82 7.87 25.02 7.98C25.21 8.09 25.33 8.32 25.37 8.67L26.42 8.67C26.40 8.05 26.24 7.60 25.89 7.36C25.54 7.11 25.05 7.00 24.46 7.00C23.86 7.00 23.32 7.15 22.83 7.48C22.34 7.78 22.02 8.25 21.91 8.86C21.85 9.17 21.88 9.44 21.99 9.66C22.11 9.88 22.32 10.08 22.61 10.22C22.86 10.35 23.13 10.44 23.42 10.51C23.72 10.58 24.00 10.68 24.25 10.77C24.85 10.98 25.12 11.27 25.05 11.66C24.92 12.33 24.39 12.67 23.49 12.67C23.10 12.67 22.81 12.59 22.60 12.42ZM29.76 5.01C29.67 4.89 29.53 4.83 29.36 4.83C29.19 4.83 29.02 4.89 28.88 5.01C28.74 5.14 28.64 5.29 28.62 5.46C28.59 5.63 28.62 5.77 28.71 5.89C28.81 6.02 28.95 6.08 29.12 6.08C29.29 6.08 29.46 6.02 29.60 5.89C29.74 5.77 29.83 5.63 29.86 5.46C29.89 5.29 29.86 5.14 29.76 5.01ZM28.21 13.30L29.41 7.14L28.43 7.14L27.23 13.30ZM36.01 10.19C35.90 10.79 35.56 11.33 35.04 11.76C34.52 12.19 33.95 12.42 33.33 12.42C32.72 12.42 32.23 12.19 31.88 11.76C31.53 11.33 31.42 10.79 31.53 10.19C31.65 9.58 31.98 9.04 32.49 8.61C33.01 8.18 33.59 7.95 34.20 7.95C34.82 7.95 35.31 8.18 35.66 8.61C36.01 9.04 36.13 9.58 36.01 10.19ZM36.99 10.19C37.16 9.31 36.99 8.55 36.48 7.92C35.98 7.29 35.28 6.97 34.40 6.97C33.52 6.97 32.69 7.29 31.93 7.92C31.18 8.55 30.72 9.31 30.55 10.19C30.38 11.09 30.55 11.84 31.05 12.46C31.57 13.09 32.27 13.40 33.15 13.40C34.03 13.40 34.85 13.09 35.60 12.46C36.36 11.84 36.82 11.09 36.99 10.19ZM42.32 13.30L43.30 13.30L44.04 9.45C44.18 8.74 44.11 8.16 43.82 7.73C43.68 7.50 43.50 7.32 43.25 7.20C42.99 7.07 42.64 7.01 42.21 7.01C41.78 7.01 41.37 7.14 40.99 7.36C40.63 7.57 40.31 7.85 40.04 8.20L40.25 7.14L39.27 7.14L38.07 13.30L39.05 13.30L39.55 10.72C39.70 9.94 39.97 9.31 40.35 8.85C40.56 8.60 40.81 8.39 41.10 8.23C41.40 8.08 41.76 7.99 42.18 7.99C42.60 7.99 42.87 8.15 42.99 8.43C43.12 8.71 43.15 9.04 43.06 9.45ZM47.80 5.01C47.70 4.89 47.56 4.83 47.39 4.83C47.22 4.83 47.05 4.89 46.91 5.01C46.77 5.14 46.68 5.29 46.65 5.46C46.62 5.63 46.65 5.77 46.75 5.89C46.84 6.02 46.98 6.08 47.15 6.08C47.32 6.08 47.49 6.02 47.63 5.89C47.77 5.77 47.87 5.63 47.89 5.46C47.92 5.29 47.89 5.14 47.80 5.01ZM46.24 13.30L47.45 7.14L46.47 7.14L45.26 13.30ZM52.02 13.30L53.27 13.30L51.72 10.22L54.47 7.14L53.23 7.14L51.23 9.51L50.15 7.14L48.90 7.14L50.46 10.21L47.70 13.30L48.94 13.30L50.95 10.91Z"></path></g><defs data-v-fde0c5aa=""><linearGradient data-v-fde0c5aa="" gradientTransform="rotate(25)" id="2052efb6-14fa-44b9-bfd9-a5ceb301231a" x1="0%" y1="0%" x2="100%" y2="0%"><stop data-v-fde0c5aa="" offset="0%" stop-color="#E90DCA" stop-opacity="1"></stop><stop data-v-fde0c5aa="" offset="100%" stop-color="#1536F1" stop-opacity="1"></stop></linearGradient></defs><g data-v-fde0c5aa="" id="5cac9fec-2406-4d14-84da-f0f77d74ec4f" stroke="none" fill="url(#2052efb6-14fa-44b9-bfd9-a5ceb301231a)" transform="matrix(0.061427741865517284,0,0,0.061427741865517284,36.96546969244039,119.28612906724136)"><path d="M415.3 485.2V425c18.3-6.3 31.1-24.6 29-45.4-2-20.1-18.1-36.5-38.2-38.7-26.1-2.9-48.3 17.6-48.3 43.1 0 19 12.2 35.1 29.2 41v60.2c0 5.6-4.6 10.2-10.2 10.2H244.6c-5.6 0-10.2 4.6-10.2 10.2s4.6 10.2 10.2 10.2h30.1c5.6 0 10.2 4.6 10.2 10.2v56.3c-19.7 5.9-33.5 25.4-30.5 47.6 2.6 19.5 18.5 34.9 38 37.1 26.1 2.9 48.3-17.6 48.3-43.1 0-18.3-11.4-34-27.5-40.4V526c0-5.6 4.6-10.2 10.2-10.2h116.8v298c0 24.3-26.3 39.4-47.3 27.3L124.7 686.3c-9.8-5.6-15.8-16-15.8-27.3V278.4c0-11.3 6-21.7 15.8-27.3l186.7-107.8c12.9 9.7 29.1 15.2 46.7 14.3 35.6-1.8 64.8-30.3 67.5-65.8 3.2-41.9-30-77-71.2-77-39.4 0-71.5 32.1-71.5 71.5 0 1.6.1 3.1.2 4.7L65.2 216.8c-9.8 5.6-15.8 16-15.8 27.3v449.3c0 11.3 6 21.7 15.8 27.3l387.3 223.6c21 12.1 47.3-3 47.3-27.3V495.4h-74.3c-5.6 0-10.2-4.6-10.2-10.2zm-89.9 138.6c0 16.5-14.4 29.8-31.3 27.9-12.8-1.4-23.2-11.8-24.7-24.6-1.4-12.4 5.3-23.4 15.4-28.4 3.8-1.9 8-2.9 12.5-2.9 5.9 0 11.4 1.8 15.9 4.9 7.4 5.1 12.2 13.5 12.2 23.1zM387 408.2c-8.8-5.1-14.5-14.9-13.9-25.9.8-14.2 12.5-25.7 26.7-26.4 16.1-.8 29.4 12.1 29.4 28 0 10.3-5.6 19.3-13.9 24.2-4.2 2.4-9 3.8-14.2 3.8-5.1.1-10-1.3-14.1-3.7zM354.3 42c25.1 0 45.4 21.1 44.2 46.5-1 21.1-17.3 38.9-38.3 41.6-7.6 1-15 0-21.5-2.5-16.7-6.3-28.6-22.5-28.6-41.4 0-4.1.6-8.1 1.6-11.9C316.9 55.7 334 42 354.3 42zM934.8 279.3L547.5 55.7c-21-12.1-47.3 3-47.3 27.3l-.1 422.6h99.5c5.6 0 10.2 4.6 10.2 10.2v56.3c-19.7 5.9-33.5 25.4-30.5 47.6 2.6 19.5 18.5 34.9 38 37.1 26.1 2.9 48.3-17.6 48.3-43.1 0-18.3-11.4-34-27.5-40.4v-57.5c0-5.6 4.6-10.2 10.2-10.2H755c5.6 0 10.2-4.6 10.2-10.2s-4.6-10.2-10.2-10.2h-4.5c-5.6 0-10.2-4.6-10.2-10.2v-60.2c18.3-6.3 31.1-24.6 29-45.4-2-20.1-18.1-36.5-38.2-38.7-26.1-2.9-48.3 17.6-48.3 43.1 0 19 12.2 35.1 29.2 41V475c0 5.6-4.6 10.2-10.2 10.2h-142v-299c0-24.3 26.3-39.4 47.3-27.3l268.2 154.9c9.8 5.6 15.8 16 15.8 27.3v380.6c0 11.3-6 21.7-15.8 27.3L688.6 856.7c-13.6-10.2-30.9-15.7-49.5-14.1-34.5 3.1-62.1 31.2-64.7 65.8-3.1 41.8 30.1 76.8 71.3 76.8 39.4 0 71.5-32.1 71.5-71.5 0-1.6-.1-3.1-.2-4.7l217.9-125.8c9.8-5.6 15.8-16 15.8-27.3V306.6c-.1-11.2-6.1-21.6-15.9-27.3zM698 373.8c0-15.9 13.3-28.8 29.4-28 14.2.7 25.8 12.2 26.7 26.4.6 11-5.1 20.7-13.9 25.9-4.2 2.4-9 3.8-14.2 3.8-5.2 0-10-1.4-14.2-3.8-8.2-5-13.8-14-13.8-24.3zm-47.6 239.8c0 16.5-14.4 29.8-31.3 27.9-12.8-1.4-23.2-11.8-24.7-24.6-1.4-12.4 5.3-23.4 15.4-28.4 3.8-1.9 8-2.9 12.5-2.9 5.9 0 11.4 1.8 15.9 4.9 7.3 5.1 12.2 13.5 12.2 23.1zm37.9 312c-5.7 20.4-25.7 34.9-48.5 32-20-2.6-35.9-18.8-38.1-38.8-3-26.7 17.9-49.3 43.9-49.3 5.5 0 10.8 1 15.7 2.9 16.7 6.3 28.6 22.5 28.6 41.4 0 4.1-.6 8-1.6 11.8z"></path></g><!----></svg>