<svg xmlns="http://www.w3.org/2000/svg" class="font" viewBox="0 0 228.943 60"><g id="35afea95-dbc7-4ee9-aa6f-c4f724fad95b" fill="#000"><path d="M2.95 8.58L3.70 4.72L5.91 4.72C6.48 4.72 6.92 4.90 7.20 5.25C7.48 5.60 7.56 6.06 7.45 6.62C7.34 7.18 7.06 7.64 6.62 8.02C6.19 8.39 5.71 8.58 5.17 8.58ZM8.41 6.65C8.58 5.81 8.43 5.12 7.94 4.58C7.46 4.05 6.79 3.78 5.95 3.78L2.90 3.78L1.05 13.30L2.03 13.30L2.76 9.53L4.83 9.53C5.68 9.53 6.44 9.25 7.13 8.72C7.83 8.18 8.25 7.49 8.41 6.65ZM9.44 13.30L9.94 10.72C10.11 9.87 10.37 9.21 10.75 8.76C10.96 8.51 11.21 8.33 11.51 8.19C11.80 8.05 12.15 7.99 12.57 7.99C12.99 7.99 13.26 8.13 13.38 8.41C13.51 8.69 13.54 9.04 13.45 9.45L12.71 13.30L13.69 13.30L14.43 9.45C14.57 8.74 14.50 8.15 14.21 7.71C14.07 7.49 13.89 7.32 13.64 7.20C13.38 7.07 13.03 7.01 12.60 7.01C12.17 7.01 11.76 7.13 11.38 7.35C11.02 7.56 10.70 7.85 10.43 8.20L11.48 2.80L10.50 2.80L8.46 13.30ZM15.68 16.80L21.83 7.14L20.73 7.14L18.16 11.27L17.00 7.14L15.88 7.14L17.44 12.29L14.49 16.80ZM22.60 12.42C22.39 12.25 22.26 11.98 22.23 11.58L21.20 11.58C21.17 12.85 21.85 13.48 23.28 13.48C23.62 13.48 23.93 13.45 24.23 13.37C24.54 13.29 24.84 13.16 25.10 13.01C25.63 12.68 25.97 12.19 26.10 11.54C26.22 10.88 26.00 10.40 25.42 10.09C25.17 9.97 24.91 9.86 24.61 9.79C24.32 9.72 24.02 9.65 23.77 9.56C23.52 9.48 23.31 9.37 23.16 9.24C23.00 9.11 22.95 8.90 23.00 8.62C23.06 8.34 23.20 8.15 23.45 8.01C23.69 7.88 23.97 7.81 24.28 7.81C24.58 7.81 24.82 7.87 25.02 7.98C25.21 8.09 25.33 8.32 25.37 8.67L26.42 8.67C26.40 8.05 26.24 7.60 25.89 7.36C25.54 7.11 25.05 7.00 24.46 7.00C23.86 7.00 23.32 7.15 22.83 7.48C22.34 7.78 22.02 8.25 21.91 8.86C21.85 9.17 21.88 9.44 21.99 9.66C22.11 9.88 22.32 10.08 22.61 10.22C22.86 10.35 23.13 10.44 23.42 10.51C23.72 10.58 24.00 10.68 24.25 10.77C24.85 10.98 25.12 11.27 25.05 11.66C24.92 12.33 24.39 12.67 23.49 12.67C23.10 12.67 22.81 12.59 22.60 12.42ZM29.76 5.01C29.67 4.89 29.53 4.83 29.36 4.83C29.19 4.83 29.02 4.89 28.88 5.01C28.74 5.14 28.64 5.29 28.62 5.46C28.59 5.63 28.62 5.77 28.71 5.89C28.81 6.02 28.95 6.08 29.12 6.08C29.29 6.08 29.46 6.02 29.60 5.89C29.74 5.77 29.83 5.63 29.86 5.46C29.89 5.29 29.86 5.14 29.76 5.01ZM28.21 13.30L29.41 7.14L28.43 7.14L27.23 13.30ZM36.01 10.19C35.90 10.79 35.56 11.33 35.04 11.76C34.52 12.19 33.95 12.42 33.33 12.42C32.72 12.42 32.23 12.19 31.88 11.76C31.53 11.33 31.42 10.79 31.53 10.19C31.65 9.58 31.98 9.04 32.49 8.61C33.01 8.18 33.59 7.95 34.20 7.95C34.82 7.95 35.31 8.18 35.66 8.61C36.01 9.04 36.13 9.58 36.01 10.19ZM36.99 10.19C37.16 9.31 36.99 8.55 36.48 7.92C35.98 7.29 35.28 6.97 34.40 6.97C33.52 6.97 32.69 7.29 31.93 7.92C31.18 8.55 30.72 9.31 30.55 10.19C30.38 11.09 30.55 11.84 31.05 12.46C31.57 13.09 32.27 13.40 33.15 13.40C34.03 13.40 34.85 13.09 35.60 12.46C36.36 11.84 36.82 11.09 36.99 10.19ZM42.32 13.30L43.30 13.30L44.04 9.45C44.18 8.74 44.11 8.16 43.82 7.73C43.68 7.50 43.50 7.32 43.25 7.20C42.99 7.07 42.64 7.01 42.21 7.01C41.78 7.01 41.37 7.14 40.99 7.36C40.63 7.57 40.31 7.85 40.04 8.20L40.25 7.14L39.27 7.14L38.07 13.30L39.05 13.30L39.55 10.72C39.70 9.94 39.97 9.31 40.35 8.85C40.56 8.60 40.81 8.39 41.10 8.23C41.40 8.08 41.76 7.99 42.18 7.99C42.60 7.99 42.87 8.15 42.99 8.43C43.12 8.71 43.15 9.04 43.06 9.45ZM47.80 5.01C47.70 4.89 47.56 4.83 47.39 4.83C47.22 4.83 47.05 4.89 46.91 5.01C46.77 5.14 46.68 5.29 46.65 5.46C46.62 5.63 46.65 5.77 46.75 5.89C46.84 6.02 46.98 6.08 47.15 6.08C47.32 6.08 47.49 6.02 47.63 5.89C47.77 5.77 47.87 5.63 47.89 5.46C47.92 5.29 47.89 5.14 47.80 5.01ZM46.24 13.30L47.45 7.14L46.47 7.14L45.26 13.30ZM52.02 13.30L53.27 13.30L51.72 10.22L54.47 7.14L53.23 7.14L51.23 9.51L50.15 7.14L48.90 7.14L50.46 10.21L47.70 13.30L48.94 13.30L50.95 10.91Z" transform="matrix(4.285714577655423,0,0,4.285714577655423,-4.499998737842063,-12.000000374657809)"/></g></svg>